<svg width="46" height="46" viewBox="0 0 46 46" fill="none" xmlns="http://www.w3.org/2000/svg">
<path d="M32.0416 17.4208C32.2418 17.2343 32.4032 17.0101 32.5167 16.7611C32.6302 16.5121 32.6935 16.2433 32.7031 15.9698C32.7126 15.6964 32.6683 15.4237 32.5725 15.1674C32.4767 14.9111 32.3313 14.6762 32.1447 14.4761C31.9582 14.2759 31.734 14.1145 31.485 14.001C31.236 13.8875 30.9672 13.8242 30.6937 13.8146C30.4203 13.805 30.1476 13.8494 29.8913 13.9452C29.635 14.041 29.4001 14.1863 29.2 14.3729L23.1041 20.0563L17.4208 13.9583C17.0405 13.5689 16.5229 13.3437 15.9787 13.331C15.4345 13.3183 14.9069 13.5191 14.5089 13.8904C14.1109 14.2618 13.874 14.7742 13.849 15.3179C13.824 15.8617 14.0127 16.3937 14.375 16.8L20.0583 22.8958L13.9604 28.5792C13.7532 28.7639 13.585 28.9881 13.4656 29.2387C13.3463 29.4893 13.2783 29.7613 13.2655 30.0385C13.2527 30.3158 13.2955 30.5928 13.3913 30.8533C13.4871 31.1138 13.634 31.3526 13.8233 31.5555C14.0127 31.7585 14.2407 31.9216 14.4939 32.0352C14.7472 32.1488 15.0206 32.2106 15.2981 32.2171C15.5756 32.2236 15.8515 32.1745 16.1098 32.0729C16.3681 31.9712 16.6034 31.8189 16.802 31.625L22.8979 25.9438L28.5812 32.0396C28.7647 32.2506 28.9888 32.4225 29.2402 32.5451C29.4916 32.6677 29.765 32.7384 30.0443 32.753C30.3236 32.7676 30.6029 32.7259 30.8657 32.6302C31.1285 32.5346 31.3694 32.387 31.5739 32.1963C31.7785 32.0056 31.9425 31.7757 32.0563 31.5203C32.1701 31.2648 32.2313 30.9891 32.2363 30.7095C32.2412 30.4298 32.1898 30.1521 32.0852 29.8928C31.9805 29.6334 31.8247 29.3978 31.627 29.2L25.9458 23.1042L32.0416 17.4208Z" fill="#333333"/>
<path fill-rule="evenodd" clip-rule="evenodd" d="M0.083313 23C0.083313 10.3438 10.3437 0.0833435 23 0.0833435C35.6562 0.0833435 45.9166 10.3438 45.9166 23C45.9166 35.6563 35.6562 45.9167 23 45.9167C10.3437 45.9167 0.083313 35.6563 0.083313 23ZM23 41.75C20.5377 41.75 18.0995 41.265 15.8247 40.3228C13.5498 39.3805 11.4828 37.9994 9.74173 36.2583C8.00063 34.5172 6.61951 32.4502 5.67724 30.1753C4.73496 27.9005 4.24998 25.4623 4.24998 23C4.24998 20.5377 4.73496 18.0995 5.67724 15.8247C6.61951 13.5498 8.00063 11.4829 9.74173 9.74176C11.4828 8.00066 13.5498 6.61954 15.8247 5.67727C18.0995 4.73499 20.5377 4.25001 23 4.25001C27.9728 4.25001 32.7419 6.22545 36.2582 9.74176C39.7745 13.2581 41.75 18.0272 41.75 23C41.75 27.9728 39.7745 32.742 36.2582 36.2583C32.7419 39.7746 27.9728 41.75 23 41.75Z" fill="#333333"/>
</svg>
