<svg width="54" height="54" viewBox="0 0 54 54" fill="none" xmlns="http://www.w3.org/2000/svg">
<path d="M27 47.25C21.375 47.25 16.5938 45.2812 12.6562 41.3438C8.71875 37.4062 6.75 32.625 6.75 27C6.75 21.375 8.71875 16.5938 12.6562 12.6562C16.5938 8.71875 21.375 6.75 27 6.75C27.525 6.75 28.041 6.76875 28.548 6.80625C29.055 6.84375 29.5515 6.9 30.0375 6.975C28.5 8.0625 27.2715 9.4785 26.352 11.223C25.4325 12.9675 24.9735 14.8515 24.975 16.875C24.975 20.25 26.1562 23.1187 28.5188 25.4812C30.8813 27.8438 33.75 29.025 37.125 29.025C39.1875 29.025 41.0812 28.5652 42.8062 27.6458C44.5312 26.7262 45.9375 25.4985 47.025 23.9625C47.1 24.45 47.1562 24.9465 47.1938 25.452C47.2313 25.9575 47.25 26.4735 47.25 27C47.25 32.625 45.2812 37.4062 41.3438 41.3438C37.4062 45.2812 32.625 47.25 27 47.25ZM27 42.75C30.3 42.75 33.2625 41.8403 35.8875 40.0208C38.5125 38.2013 40.425 35.8298 41.625 32.9062C40.875 33.0938 40.125 33.2437 39.375 33.3562C38.625 33.4688 37.875 33.525 37.125 33.525C32.5125 33.525 28.584 31.9028 25.3395 28.6583C22.095 25.4138 20.4735 21.486 20.475 16.875C20.475 16.125 20.5312 15.375 20.6438 14.625C20.7563 13.875 20.9062 13.125 21.0938 12.375C18.1687 13.575 15.7965 15.4875 13.977 18.1125C12.1575 20.7375 11.2485 23.7 11.25 27C11.25 31.35 12.7875 35.0625 15.8625 38.1375C18.9375 41.2125 22.65 42.75 27 42.75Z" fill="white"/>
</svg>
