<svg width="54" height="54" viewBox="0 0 54 54" fill="none" xmlns="http://www.w3.org/2000/svg">
<path fill-rule="evenodd" clip-rule="evenodd" d="M27 8.4375C16.7482 8.4375 8.4375 16.7482 8.4375 27C8.4375 37.2517 16.7482 45.5625 27 45.5625C37.2517 45.5625 45.5625 37.2517 45.5625 27C45.5625 16.7482 37.2517 8.4375 27 8.4375ZM5.0625 27C5.0625 14.8842 14.8842 5.0625 27 5.0625C39.1158 5.0625 48.9375 14.8842 48.9375 27C48.9375 39.1158 39.1158 48.9375 27 48.9375C14.8842 48.9375 5.0625 39.1158 5.0625 27ZM27 25.3125C27.9319 25.3125 28.6875 26.0681 28.6875 27V34.875C28.6875 35.8069 27.9319 36.5625 27 36.5625C26.0681 36.5625 25.3125 35.8069 25.3125 34.875V27C25.3125 26.0681 26.0681 25.3125 27 25.3125ZM27 18C25.7573 18 24.75 19.0074 24.75 20.25C24.75 21.4926 25.7573 22.5 27 22.5H27.0225C28.2652 22.5 29.2725 21.4926 29.2725 20.25C29.2725 19.0074 28.2652 18 27.0225 18H27Z" fill="white"/>
</svg>
